/* XPM */
static char * 0_xpm[] = {
"32 32 7 1",
" 	c #79DAC5",
".	c #6EC7B4",
"+	c #77D6C2",
"@	c #75D3BE",
"#	c #70CBB7",
"$	c #75D4BF",
"%	c #73D1BC",
"                                ",
"                                ",
"....                ++    @.....",
"   ...@           ..##   ....@@$",
"     .....      ....            ",
"                @@              ",
"                         .      ",
"     @.....@@@@         ..      ",
"       @@................       ",
"                @@@@@@.         ",
"                                ",
"          @@@@@@.#+             ",
"       @.........#+             ",
"...@.....@                   ...",
".....                        @..",
"                                ",
"                                ",
"        +#.....@.@@             ",
"        +#...........@          ",
"                   @.........   ",
"                      @......   ",
"           @@                   ",
"      @......                   ",
"  @......@                      ",
"....@                   #%@     ",
".@                      #.......",
"                            @@@@",
"        ..........@             ",
"       ....     @@.....@        ",
"       .           @@......     ",
"                         @      ",
"                                "};
