/* XPM */
static char *_9c38002d016463ae31d7176983d2decER6VKyx7iqWUfYl3[] = {
/* columns rows colors chars-per-pixel */
"32 32 153 2 ",
"   c #229FD9",
".  c #1FA0DB",
"X  c #25A1D7",
"o  c #2BA2D5",
"O  c #25A2DB",
"+  c #2CA4DD",
"@  c #26ACDB",
"#  c #2CABDD",
"$  c #2EA8DE",
"%  c #2FA8DE",
"&  c #2FA9DE",
"*  c #28ACDC",
"=  c #29ACDC",
"-  c #28ADDC",
";  c #28ACDD",
":  c #2AACDC",
">  c #2AADDC",
",  c #2BADDC",
"<  c #2AACDD",
"1  c #2BACDD",
"2  c #2BAEDC",
"3  c #2DACDC",
"4  c #2DACDD",
"5  c #2CADDD",
"6  c #2DADDD",
"7  c #2FACDD",
"8  c #2FADDD",
"9  c #2DAEDC",
"0  c #2DAEDD",
"q  c #2EAEDC",
"w  c #2EAEDD",
"e  c #2CACDE",
"r  c #2FAEDE",
"t  c #2CADDC",
"y  c #30A3DA",
"u  c #31A3DA",
"i  c #30A3DB",
"p  c #30A5DB",
"a  c #33A4DA",
"s  c #34A4DB",
"d  c #33A3DC",
"f  c #30A4DD",
"g  c #30A5DD",
"h  c #31A5DD",
"j  c #33A4DC",
"k  c #33A5DC",
"l  c #32A7DD",
"z  c #30A4DE",
"x  c #30A5DE",
"c  c #31A5DE",
"v  c #30A5DF",
"b  c #32A5DE",
"n  c #30A6DE",
"m  c #31A6DE",
"M  c #31A7DE",
"N  c #30A6DF",
"B  c #32A7DE",
"V  c #34A4DC",
"C  c #31A5DD",
"Z  c #30A8DE",
"A  c #31A9DE",
"S  c #30A8DF",
"D  c #32A8DE",
"F  c #33A9DE",
"G  c #30ABDE",
"H  c #31AADF",
"J  c #31ABDF",
"K  c #32ABDE",
"L  c #33ABDE",
"P  c #30AFDD",
"I  c #33AFDD",
"U  c #30ACDE",
"Y  c #31ACDE",
"T  c #31ACDF",
"R  c #33ACDE",
"E  c #32ADDE",
"W  c #33ADDE",
"Q  c #33ACDF",
"!  c #32ADDF",
"~  c #33ADDF",
"^  c #30AEDE",
"/  c #31AEDE",
"(  c #30AFDE",
")  c #31AEDF",
"_  c #31AFDF",
"`  c #32AEDE",
"'  c #33AEDE",
"]  c #33AFDE",
"[  c #32AEDF",
"{  c #33AEDF",
"}  c #33AFDF",
"|  c #34ADDD",
" . c #35ADDD",
".. c #34ADDE",
"X. c #34AEDE",
"o. c #34AFDE",
"O. c #35AFDE",
"+. c #34AEDF",
"@. c #34AFDF",
"#. c #32AEDC",
"$. c #2DB0DB",
"%. c #2DB0DC",
"&. c #2DB1DC",
"*. c #2FB0DC",
"=. c #2EB0DE",
"-. c #2FB0DE",
";. c #2CB1DC",
":. c #30B0DC",
">. c #31B1DC",
",. c #30B1DD",
"<. c #31B1DD",
"1. c #32B1DC",
"2. c #30B0DE",
"3. c #31B0DE",
"4. c #32B0DE",
"5. c #33B0DE",
"6. c #33B1DE",
"7. c #32B0DF",
"8. c #33B0DF",
"9. c #34B0DE",
"0. c #35B0DE",
"q. c #35B1DE",
"w. c #35B1DF",
"e. c #36B0DF",
"r. c #34B2DE",
"t. c #35B2DE",
"y. c #37B4DD",
"u. c #35B4DE",
"i. c #37B4DE",
"p. c #32B3DD",
"a. c #38B5DF",
"s. c #3AB5DF",
"d. c #3AB7DE",
"f. c #3AB7DF",
"g. c #35BADD",
"h. c #34B9DE",
"j. c #35BADE",
"k. c #35BBDD",
"l. c #38B9DB",
"z. c #3BB9DE",
"x. c #39BBDE",
"c. c #3CB9DE",
"v. c #39BCDD",
"b. c #3ABDDD",
"n. c #38BCDE",
"m. c #3CBCDD",
"M. c #3EBCDD",
"N. c #3CBCDE",
"B. c #3DBCDE",
"V. c #3DBCDF",
"C. c #3EBCDE",
"Z. c #39BCDE",
"A. c #31AFE0",
/* pixels */
"o X X X X X X X O O O O O   X O     +   + o a a B u u u s B d d ",
": - @ @ - - O O O O O O O X O O O O + z + + + B z B B B G ..E ..",
"X . O @ O O @ ; - @ + ; ; O O O O o + + + $ G F G ..F ..z z B B ",
"X O O ;.O . O O O O O O O + - $ $ # # G $ B B B B B B + z A.+ + ",
"X O O @ @ O . O O   O O O O O O + + + + + + B z ..F z z z B B + ",
", , @ @ @ . O O O O O   O + z + O + z + + B + B B z + A.F E ....",
": @ , , 5 - ; ; 5 5 5 5 + + + O + + + + A...........A.....E E r.",
"$.: , - - - - e 5 5 5 >.e e >.A.>.A.e.e.........r...r...>.r...A.",
"l.l.l.k.h.;.;.=.=.:.:.>.A.>.A.>.>...r...e.e.e.e.r.r.r.f.C.m.m.m.",
"3 @ : @ , h.n.v.v.v.m.m.i.>.r...r...r. .c.C.C.C.C.c.c.i...r.>.A.",
": , : : , =.E B >.r.r.r.z.c.c.f.c.c.c.c.s. .A.e.r.r.r...E E A.E ",
"o O O X + $ G A.E A.r.E ..e.r.r.r.r.0.e.e...A.A.......A.+ + + + ",
"X X O O + A.d A.B B z z F A.G ..E E E ..A.d z d z d A.A.+ + O O ",
"o O + O A.    z z + + z z z z z B z + B z z z   z d   O + + O O ",
"A.A.$ + d d z d + z z z z + s.d   z z z d z z z z A.A.E 5 e 5 $ ",
"o O + A.A.A.A.A.A.A.z z + B + A.A.z A.A.A.A.A.A.A.z + O O O O O ",
"d A.z A.z + B + + z A.>.A.A.>...A.A.z z z z z z z + +   O O O + ",
"z A.d d + B + a + + + $ G + + + z z A.  d A.z   + + O . O O O + ",
"i z z   A.z + + B + + + + + + + + z d   A.  + +   + O + O   + + ",
"d z A.+ + B ;.8 E 5 #.5 E 5 8 #   z z d + + O O     S ; + + + O ",
"V ....E E 8 ;., 8 8 8 ;.8 8 ;.8 A.G #.8 5 5 ; X O X O + + O + ; ",
"e...>.:.#.8 8 8 8 , , 8 =.5 8 , 5 G ;.5 g.>., , - 5 5 5 N ; ; ; ",
"r.>.>.5 ;.g.v.k.n.n.l.v.g.v.v.>.5 5 5 =.5 ;., 8 5 5 5 =.;.;.; - ",
"M.m.v.v.n.;.8 , , , , , ;.=.e g.v.v.m.v.v.n.;.5 5 =.;.- - - ;.h.",
" .8 =.5 =., , , 5 5 5 , , , 5 5 =.5 , =., , u.z.v.v.k.k.k.k.;.@ ",
"$.8 5 5 8 , , 8 5 5 8 , , , 5 5 , ;., 5 , =.;.;.=.=.;.;.- - @ @ ",
"3 5 - - - @ O : @ X O + o O O ; , , - - 8 ;., , =., @ @ @ @ @ @ ",
"o X O O + O O u.$ O + O O + + O O o O + + O : , @ @ @ @ @ @ . . ",
"  O   O : - $ >.A.$ $ 5 ; H z   O O O O @ X O @ . X @ . @ @ . . ",
"G $ A.B O O + O O O O + + O H A.e A.H A.;.. O . . . . . . . @ @ ",
"+ O A.  O O + O z O     O O O O + + O O . @ @ @ @ @ @ @ @ . . . ",
"o +   + + + + O d   d z   O z   O   o O X X X X . X X @ . X . . "
};
