/* XPM */
static char *result[] = {
/* columns rows colors chars-per-pixel */
"32 32 148 2 ",
"   c #1B3F1E",
".  c #263622",
"X  c #2B3727",
"o  c #253A21",
"O  c #2A3926",
"+  c #2E372A",
"@  c #2E3A2A",
"#  c #31372E",
"$  c #313B2D",
"%  c #353632",
"&  c #393736",
"*  c #363932",
"=  c #393B36",
"-  c #3E3D3A",
";  c #403E3C",
":  c #174523",
">  c #1E4224",
",  c #1E4329",
"<  c #144E2D",
"1  c #1D4829",
"2  c #1C4D34",
"3  c #1E4D39",
"4  c #165031",
"5  c #15553B",
"6  c #1D553E",
"7  c #244024",
"8  c #25462C",
"9  c #30422C",
"0  c #33492D",
"q  c #214530",
"w  c #214D30",
"e  c #2C4A34",
"r  c #224A3A",
"t  c #374332",
"y  c #364931",
"u  c #3C4D36",
"i  c #3D4339",
"p  c #3F493B",
"a  c #21543F",
"s  c #3B5335",
"d  c #3E593F",
"f  c #43413F",
"g  c #404C3B",
"h  c #42543C",
"j  c #435A3C",
"k  c #185540",
"l  c #195C47",
"z  c #1E554A",
"x  c #1D5B4C",
"c  c #1C5D50",
"v  c #235642",
"b  c #245B45",
"n  c #2C5E4A",
"m  c #355F4E",
"M  c #3E5F4C",
"N  c #23624D",
"B  c #2C614F",
"V  c #3C624C",
"C  c #266150",
"Z  c #2F6455",
"A  c #2B655B",
"S  c #206B5F",
"D  c #346553",
"F  c #3B6453",
"G  c #1D6C6A",
"H  c #1D767F",
"J  c #2B6863",
"K  c #256B68",
"L  c #366B60",
"P  c #33706C",
"I  c #464442",
"U  c #494645",
"Y  c #464A42",
"T  c #4B4B46",
"R  c #4E4B49",
"E  c #514E4C",
"W  c #4A5545",
"Q  c #4D5B47",
"!  c #53514E",
"~  c #525C4D",
"^  c #565351",
"/  c #595653",
"(  c #5C5956",
")  c #5F5B59",
"_  c #615E5B",
"`  c #54624D",
"'  c #5A6353",
"]  c #5E6956",
"[  c #5F6C58",
"{  c #64615E",
"}  c #636C5C",
"|  c #676460",
" . c #696663",
".. c #676960",
"X. c #6D6966",
"o. c #6F6B68",
"O. c #716D6A",
"+. c #6C7266",
"@. c #6F7068",
"#. c #74726D",
"$. c #777370",
"%. c #797572",
"&. c #7D7975",
"*. c #7F7C78",
"=. c #807E77",
"-. c #817D79",
";. c #7F8077",
":. c #86827E",
">. c #88847F",
",. c #1A7E93",
"<. c #1C8193",
"1. c #24818B",
"2. c #248393",
"3. c #23859C",
"4. c #2A869E",
"5. c #278B9A",
"6. c #2B8B9B",
"7. c #2388A6",
"8. c #2888A2",
"9. c #248AA9",
"0. c #2C89A8",
"q. c #2A92A9",
"w. c #2799B4",
"e. c #2496C3",
"r. c #269CC1",
"t. c #229FD9",
"y. c #1FA0DB",
"u. c #25A1D7",
"i. c #2BA2D5",
"p. c #24A2DA",
"a. c #2BA3DC",
"s. c #25ABDB",
"d. c #2AACDB",
"f. c #33A5D5",
"g. c #31A5DD",
"h. c #32ADDE",
"j. c #2DB0DB",
"k. c #32B0DE",
"l. c #35BADD",
"z. c #3CBBDD",
"x. c #8A8681",
"c. c #8D8A85",
"v. c #908C87",
"b. c #928E89",
"n. c #95928D",
"m. c #98948F",
"M. c #9A9691",
"N. c #9C9993",
/* pixels */
"i.u.u.u.u.a.p.p.p.u.u.3.N W ' ......' V N 8.g.g.g.g.g.g.g.g.g.g.",
"d.s.s.s.d.s.p.p.p.p.3.C ` #.x.c.b.c.:.#.~ Z 3.g.g.g.g.g.h.h.h.h.",
"u.p.p.s.p.p.s.s.s.r.P [ :.:.;.&.:.c.c.c.*.' n f.h.h.h.h.g.g.g.g.",
"u.p.p.j.p.p.p.p.p.G s &.n.b.c.:.>.c.n.c.%.~ e 0.g.g.g.g.g.g.g.g.",
"u.p.p.s.s.y.p.p.w.K s O.v.M.m.b.n.m.n.&.) R y A 6.g.g.g.g.g.g.g.",
"j.s.d.s.s.p.p.2.B j } O.&.x.m.M.n.*.X.) / / ' ` ` B 8.g.h.h.k.k.",
"d.d.s.j.s.d.,.Q } &.>.-.$.$.&.-.o.) / / ) X.*.*.+.' D 6.h.k.h.h.",
"d.j.s.d.j.2.F +.>.v.b.x.-.$.O.X.) / (  .%.:.x.c.x.&.W v w.k.h.k.",
"l.l.l.l.z.n ] >.c.b.n.v.c.:.&.O.| | $.-.x.c.c.v.x.+.R X C z.z.z.",
"d.d.d.d.w.A +.v.m.n.m.m.n.v.x.>.-.x.x.x.c.c.c.x.$./ ; % , 8.k.k.",
"d.d.d.d.S s O.c.m.N.N.m.b.n.v.v.v.c.c.c.x.x.*.#.( M & & . l k.k.",
"i.p.p.i.a W X.&.:.n.m.n.v.c.c.c.x.x.x.x.x.*.X.( R R U I + 4 a.p.",
"u.u.a.2.D / X.O.#.&.>.>.:.:.:.>.x.x.x.c.c.%.( R / | o. .T 2 9.p.",
"u.a.2.D ] #.$.#.o.X.O.O.%.:.c.c.x.v.v.c.&.) ^ ^ o.x.b.x.@.W x u.",
"h.5.D } :.>.:.=.%.o.{ { #.>.n.m.m.m.b.&.{ ^ R / %.b.n.m.b.} 8 5.",
"3.D } x.c.c.c.>.:.%.X.{ X.&.x.b.n.x.%.| / ^ / ) #.:.c.n.c.| @ 5 ",
"x Q x.n.b.c.v.x.x.>.$.| { o.$.-.&.o.) ( _ | X.O.$.$.&.-.#./ = : ",
"J ) x.M.m.v.v.v.v.c.-.{ ( {  .X. .( ^ { O.-.-.:.-.&.$.O._ E -   ",
"y ) %.n.M.n.v.v.b.c.O./ ^ (  . ._ ^ ( O.x.b.b.b.b.c.-.O./ E I o ",
"Y | o.>.v.M.m.m.c.$._ E E { #.O.| ) { &.m.N.N.M.N.M.c.O.^ E U # ",
"!  .O.&.&.x.M.b.%._ E E _ &.:.-.&.O.O.%.c.M.N.M.b.-.X._ ! E I % ",
"W X.$.$.O.$.>.$._ E ^ { $.x.v.v.x.x.-.%.%.x.b.c.-.{ ^ U E E I % ",
"T X.&.O.o.o.#.{ E E _ &.c.c.c.c.v.v.x.&.o.$.-.$._ ^ U f R E I - ",
"t _ $.O.o.o. ./ E ^ o.c.b.c.-.x.x.v.v.%.|  .#. ./ E E f I R ; - ",
"a u |  .X.O.{ ! I E o.x.c.x.x.v.b.m.x.o./ _ o.o./ E E I ; I ; = ",
"5.v g ~ { | ( I I E | O.$.x.M.M.m.x.$.( E ^ | o.( ^ ! I & ; = O ",
"h.5.6 o p Y I - ; R _ | | $.c.v.&. ./ E R E {  .( ^ R f # X r l ",
"i.p.e.G 2 7 X # # I _ { | X.#.$.| ^ E R I I E ( / U - + 3 5 ,.p.",
"a.y.t.a.p.1.5 < 1 i / _  .X.O.O.{ ^ R I - = + + + O r 5 <.p.y.y.",
"h.d.h.d.p.a.p.d.c 9 W _ | X.o.O.o.^ I - + 8 < < < 5 ,.y.y.p.s.s.",
"p.p.a.a.a.p.a.a.9.x @ Y )  . .o. .R & # 1 H p.s.s.s.s.s.s.s.y.y.",
"t.a.a.t.a.a.a.a.p.7.c > * = - i - * . z H u.p.t.p.y.y.t.y.y.p.p."
};
