/* XPM */
static char * 1_xpm[] = {
"32 32 205 2",
"  	c #79DAC5",
". 	c #75D3BF",
"+ 	c #5FD3A8",
"@ 	c #6ED7B8",
"# 	c #129857",
"$ 	c #61C4A5",
"% 	c #45AA82",
"& 	c #57B596",
"* 	c #72CDBA",
"= 	c #6DC5B1",
"- 	c #12B968",
"; 	c #42B77B",
"> 	c #1E9D5D",
", 	c #33AA6E",
"' 	c #6BE4A9",
") 	c #55E49A",
"! 	c #12CB71",
"~ 	c #20D77E",
"{ 	c #18B167",
"] 	c #6BC3B0",
"^ 	c #B1EECC",
"/ 	c #78E5AE",
"( 	c #46E491",
"_ 	c #12E47E",
": 	c #18E07E",
"< 	c #13E37E",
"[ 	c #5FBAA0",
"} 	c #74D1BD",
"| 	c #76DBC2",
"1 	c #6ADDB6",
"2 	c #61E4A2",
"3 	c #FFFFFF",
"4 	c #9FEEB8",
"5 	c #74DBC0",
"6 	c #58D3A2",
"7 	c #A1E46A",
"8 	c #1ADE7E",
"9 	c #18DF7E",
"0 	c #39DB88",
"a 	c #A7E8C0",
"b 	c #41E588",
"c 	c #F3E33C",
"d 	c #3CDE8B",
"e 	c #4EE496",
"f 	c #2CDB83",
"g 	c #3FDA8B",
"h 	c #99DB6D",
"i 	c #62C5A7",
"j 	c #A7E477",
"k 	c #1DDB7E",
"l 	c #B8EFD0",
"m 	c #33E488",
"n 	c #98E16D",
"o 	c #3EE47C",
"p 	c #57D1A0",
"q 	c #5EE4A0",
"r 	c #1EE480",
"s 	c #67DCA6",
"t 	c #66E4A6",
"u 	c #42E48F",
"v 	c #57DF9A",
"w 	c #4CE495",
"x 	c #6BC2AF",
"y 	c #4DE09D",
"z 	c #65DDA3",
"A 	c #0F874D",
"B 	c #52DB95",
"C 	c #98E46D",
"D 	c #A5EEB7",
"E 	c #1EDA7E",
"F 	c #12D576",
"G 	c #32E388",
"H 	c #3CE08B",
"I 	c #4FB690",
"J 	c #55D493",
"K 	c #38DD88",
"L 	c #7CEAA2",
"M 	c #E8FAED",
"N 	c #49D88F",
"O 	c #2BDE83",
"P 	c #52DE97",
"Q 	c #45E390",
"R 	c #61D89D",
"S 	c #A9EFBE",
"T 	c #FDFAE9",
"U 	c #34DA86",
"V 	c #98E06D",
"W 	c #15E27E",
"X 	c #59E29C",
"Y 	c #30DA84",
"Z 	c #62E2A2",
"` 	c #43D87C",
" .	c #9CE475",
"..	c #119253",
"+.	c #12BB69",
"@.	c #13BC6A",
"#.	c #18C571",
"$.	c #1DD179",
"%.	c #2DDA83",
"&.	c #0F8B4F",
"*.	c #62B2A1",
"=.	c #12C36D",
"-.	c #0FAE61",
";.	c #65B8A6",
">.	c #5FAD9C",
",.	c #0FA75D",
"'.	c #11DB79",
").	c #17D679",
"!.	c #12CC72",
"~.	c #0E8F50",
"{.	c #0E8249",
"].	c #0C7844",
"^.	c #0A6D3D",
"/.	c #5EBDA1",
"(.	c #31C17B",
"_.	c #1A9E5D",
":.	c #0E814A",
"<.	c #096A3C",
"[.	c #075E35",
"}.	c #519586",
"|.	c #67BBA8",
"1.	c #59AE97",
"2.	c #0A6E3E",
"3.	c #0D7C47",
"4.	c #0B7341",
"5.	c #0B723F",
"6.	c #09683A",
"7.	c #086438",
"8.	c #096C3D",
"9.	c #5FAC9C",
"0.	c #4A897B",
"a.	c #478477",
"b.	c #4B9580",
"c.	c #0A6C3C",
"d.	c #0C7B45",
"e.	c #0B7340",
"f.	c #086135",
"g.	c #096E3D",
"h.	c #065932",
"i.	c #509384",
"j.	c #4C8D7F",
"k.	c #448073",
"l.	c #396C61",
"m.	c #1A6A44",
"n.	c #13623C",
"o.	c #096638",
"p.	c #0A713F",
"q.	c #0A6F3E",
"r.	c #0A6E3D",
"s.	c #0A6F3D",
"t.	c #05532D",
"u.	c #1A5D3D",
"v.	c #054F2B",
"w.	c #075A31",
"x.	c #336257",
"y.	c #68BDAB",
"z.	c #5AA494",
"A.	c #509485",
"B.	c #3F776B",
"C.	c #36675C",
"D.	c #386B60",
"E.	c #40796D",
"F.	c #3D7468",
"G.	c #315F55",
"H.	c #295D4D",
"I.	c #2B5F4F",
"J.	c #2C554C",
"K.	c #325F56",
"L.	c #37695E",
"M.	c #065A32",
"N.	c #054F2C",
"O.	c #096639",
"P.	c #05562E",
"Q.	c #265246",
"R.	c #519687",
"S.	c #488578",
"T.	c #57A090",
"U.	c #60B09E",
"V.	c #5CA898",
"W.	c #417A6E",
"X.	c #478578",
"Y.	c #4B8B7D",
"Z.	c #3C7266",
"`.	c #3A6E63",
" +	c #447F72",
".+	c #3D7367",
"++	c #2E6955",
"@+	c #075A32",
"#+	c #3A8469",
"$+	c #3A866A",
"%+	c #2D6552",
"&+	c #53998A",
"*+	c #529788",
"=+	c #549A8B",
"-+	c #67BBA9",
";+	c #68BDAA",
">+	c #60AF9E",
",+	c #559C8D",
"'+	c #519587",
")+	c #5BA696",
"!+	c #4D8F81",
"~+	c #427C6F",
"{+	c #4D8E80",
"]+	c #61B1A0",
"^+	c #72CFBB",
"          .                                                     ",
"          + @ # # # # # # # $ % & * *                           ",
"        = # # # - # ; > # # # # # # # # # # # # # &             ",
"        # , ' ) ' ' ' ' ' ' ' ' ' ' ' ' ' ' ! ~ { # # ] ]       ",
"      & , ' ' ^ / ' ' ( ' ' ' ' ' ' ' ' ' ' _ : < _ # [ }       ",
"  | 1 # 2 ' ' 3 ^ _ _ _ _ _ _ _ _ ~ : _ _ _ _ 3 4 _ _ #         ",
"  5 6 # 2 ' ' ' _ _ _ _ 7 8 8 _ _ : 9 < _ 8 0 a b _ _ # #       ",
"    # # ' ' c _ _ _ _ _ c d d e _ _ ~ : _ 8 f g c h _ _ # i     ",
"  = # # ' ' j _ _ k k 3 l e e e _ _ _ _ _ _ m ~ n o _ _ _ #     ",
"  p # ) ' q r _ ~ k k _ _ _ _ _ _ _ s 2 _ _ _ _ _ _ : ~ _ #     ",
"  = # t ' _ _ _ 9 _ _ u ' _ _ _ _ c m m _ _ _ _ _ 8 8 : _ #     ",
"  ! # ' ' _ ~ : _ u r r u _ 4 3 _ _ _ ' ' _ _ _ _ 8 8 v w # x x ",
"  # # ' ' _ : < y ' u _ _ _ b 4 _ _ ( ' _ _ _ _ c 3 4 ~ z # x x ",
"x A # ' _ _ _ _ _ _ _ _ ' ' _ _ _ _ v ~ _ 2 B ~ C D b ' ( # } x ",
"x A ' ' _ _ _ E E _ _ F ( _ _ _ _ _ ( ' m m G : _ _ E ~ H # I x ",
"x # J t _ _ _ c K e _ _ L M _ _ _ _ _ N O _ _ _ _ _ E P Q ! # x ",
"x # R 2 S 3 E 8 d e _ _ L T c _ E U m 8 8 _ _ _ _ V c ~ _ ! # x ",
"x # , m _ W E _ : ~ k k _ _ W W W X Y Z _ _ k k 7 `  ._ _ _ # x ",
"x ..# # +._ # _ @.#.$.k _ _ E E _ _ %.Z _ _ ~ k c 2 3 S _ _ &.*.",
"x # # # # # # # # # # # # # # _ _ _ _ _ ~ _ ~ _ _ _ _ _ _ =.-.;.",
">.A # # # # # # # # # A A A A A A A ,.'.)._ _ _ _ !.+.A ~.A A x ",
">.A # # # # # # # A A A A A A A A A A A A A A A A {.].].^.]./.x ",
">.(.A # A # # _.# ..# # A A ..# ..A A A A A :.].:.:.].{.<.[.}.|.",
">.1.2.[.:.A A ..# # A A ].].].].].<.<.3.:.].].].].4.5.6.7.8.9.x ",
"  >.0.a.b.c.d.A A ..A A A A A A ].].e.<.<.<.<.<.e.f.[.g.<.h.>.  ",
"x i.j.k.l.m.n.o.3.A A A A A p.q.<.[.r.s.[.<.e.e.[.t.u.v.w.x.>.  ",
"x x y.z.A.B.C.D.E.F.G.G.H.I.J.K.L.D.M.N.N.O.O.<.v.P.Q.R.S.T.x   ",
"  x }   U.V.W.X.Y.Z.B.`.D.B. +.+.+x.++@+7.#+$+%+B.&+*+=+=+      ",
"    x x -+;+= >+,+,+'+'+)+)+A.T.=+!+'+Y.Y.~+~+a.{+)+=+)+        ",
"      } x x x -+-+x x x ]+)+A.0.0.0.~+{+T.=+=+)+=+>.            ",
"              } x x x x ^+x x x x x >.>.>.>.x x x               ",
"                                      } } }                     "};
