/* XPM */
static char * c_xpm[] = {
"32 32 111 2",
"  	c #79DAC5",
". 	c #6BC3B0",
"+ 	c #74D1BD",
"@ 	c #0B0B0B",
"# 	c #3D7E94",
"$ 	c #EDF6F9",
"% 	c #F7FAFA",
"& 	c #566361",
"* 	c #6EC9B9",
"= 	c #2E7283",
"- 	c #185E79",
"; 	c #70B6CF",
"> 	c #6FB6D1",
", 	c #FFFFFF",
"' 	c #72BAD5",
") 	c #73BCD7",
"! 	c #71BBD6",
"~ 	c #4DA3C1",
"{ 	c #3599C0",
"] 	c #135169",
"^ 	c #183D3B",
"/ 	c #6BC1AE",
"( 	c #79C1DC",
"_ 	c #77BFDA",
": 	c #13556E",
"< 	c #437C6F",
"[ 	c #579F90",
"} 	c #3396BD",
"| 	c #175B76",
"1 	c #4B8A7D",
"2 	c #509284",
"3 	c #5EAB9B",
"4 	c #75BFDA",
"5 	c #2D88AB",
"6 	c #297FA1",
"7 	c #3B736A",
"8 	c #315B52",
"9 	c #5AA494",
"0 	c #2F8EB2",
"a 	c #237494",
"b 	c #2980A3",
"c 	c #14546C",
"d 	c #397068",
"e 	c #539889",
"f 	c #66B9A7",
"g 	c #75BEDA",
"h 	c #6FB9D4",
"i 	c #267B9C",
"j 	c #4B8F85",
"k 	c #3E7266",
"l 	c #5CA897",
"m 	c #68BDAB",
"n 	c #519485",
"o 	c #6EB8D4",
"p 	c #62B0CC",
"q 	c #2E8AAE",
"r 	c #247797",
"s 	c #165B75",
"t 	c #3D776D",
"u 	c #407A78",
"v 	c #498578",
"w 	c #5BA595",
"x 	c #4B8A7C",
"y 	c #114B62",
"z 	c #237594",
"A 	c #14546D",
"B 	c #40766A",
"C 	c #437E72",
"D 	c #437C7B",
"E 	c #124C62",
"F 	c #71BAD5",
"G 	c #257A9B",
"H 	c #3C7369",
"I 	c #45817A",
"J 	c #65B7A7",
"K 	c #24708D",
"L 	c #267B9A",
"M 	c #267A99",
"N 	c #297D9C",
"O 	c #135066",
"P 	c #3C766E",
"Q 	c #4E9083",
"R 	c #2C83A6",
"S 	c #308EB1",
"T 	c #3293B9",
"U 	c #2E89AC",
"V 	c #287D9C",
"W 	c #1C637F",
"X 	c #1B5B72",
"Y 	c #0A3A4C",
"Z 	c #4D9287",
"` 	c #4D8E80",
" .	c #38685D",
"..	c #468074",
"+.	c #4E8E80",
"@.	c #62B3A1",
"#.	c #59A292",
"$.	c #6EC8B4",
"%.	c #6AC0AE",
"&.	c #67BAA8",
"*.	c #5EAA99",
"=.	c #498679",
"-.	c #4F9183",
";.	c #62B5A7",
">.	c #71CCB9",
",.	c #5EAD9C",
"'.	c #66BBA8",
").	c #53998A",
"!.	c #61B1A0",
"~.	c #69BFAC",
"{.	c #65B8A6",
"                                                                ",
"                                                                ",
"                                                                ",
"                                              . . . . . .       ",
"                                            . . . . . . +       ",
"                                            . . . . . .         ",
"                                                  . .           ",
"                                              +                 ",
"                                          @ @                   ",
"                                        # $ % &                 ",
"                              * = - - - ; > , @                 ",
"                              - ' ) ! ~ { - ] ^   /             ",
"                            - ( _ ) ! ~ { { : < [ /             ",
"                        / - ( ( ( { { { { } | 1 2 3 +           ",
"            + +       / - ! 4 ( { { { { 5 6 | 7 8 9 /           ",
"          / / / / 3 / - ! ( ( { { { { 0 a b c d e 3 / /         ",
"        / / + / / f - ! g h { { { { 0 i i - j k l / / /         ",
"      / /   m n / - ( ( o p { { { q i r s t u v w / /           ",
"      / /   e x y ( ( ( { { { { 0 z z A B C l e 3 /             ",
"      / + + D E F ( ( { { { } i r G c H I J 3 f e               ",
"      / /   1 K ! ~ { { { { L M N O P Q 3 3 / e 3               ",
"      / /   9 B R S S T U V W X Y Z ` 3 3 / f 3                 ",
"        / /   f  . ...B ....B +.@.#.f $.  3 3 / +               ",
"          %.&.+ *.....=.-.3 f ;.f f / f 3 f /                   ",
"      / / >.,.,.,.'.'.f $./ / / 3 3 3 / f /                     ",
"      / ,.. . '.,.,.,.,.).).3 f / / + / /                       ",
"        f '.. . !.,.,.,.,.f       / / +                         ",
"        . ,.,.'.~.{.          / / /                             ",
"            + / / / / / / / / /                                 ",
"                  / / / / /                                     ",
"                                                                ",
"                                                                "};
