/* XPM */
static char *ff96d684fd64479fc5429c6e172a4597IyeVMVylQEyh8ZeM[] = {
/* columns rows colors chars-per-pixel */
"32 32 189 2 ",
"   c #2D293E",
".  c #2D3A31",
"X  c #343F3B",
"o  c #2D452E",
"O  c #2E532D",
"+  c #385C38",
"@  c #394A39",
"#  c #2F602E",
"$  c #367929",
"%  c #347836",
"&  c #437C30",
"*  c #332E4F",
"=  c #46337A",
"-  c #1C484D",
";  c #2E4947",
":  c #30494A",
">  c #365247",
",  c #285658",
"<  c #2D4856",
"1  c #366D48",
"2  c #317D4D",
"3  c #3B6753",
"4  c #2B6854",
"5  c #1B5579",
"6  c #1C5B7E",
"7  c #1C5373",
"8  c #194A6C",
"9  c #314F69",
"0  c #2B596B",
"q  c #215470",
"w  c #316869",
"e  c #367178",
"r  c #4E7D4B",
"t  c #47477E",
"y  c #537B60",
"u  c #5D7474",
"i  c #3A9824",
"p  c #3F9B35",
"a  c #388825",
"s  c #2EAC2D",
"d  c #34AD29",
"f  c #3BA828",
"g  c #34B12B",
"h  c #35AB39",
"j  c #3EB633",
"k  c #45922C",
"l  c #4E9235",
"z  c #539D3B",
"x  c #4E8837",
"c  c #40A824",
"v  c #4EB127",
"b  c #4CA83E",
"n  c #40B53A",
"m  c #5AB93A",
"M  c #53BB2A",
"N  c #378547",
"B  c #34A94A",
"V  c #3DAC52",
"C  c #30AC79",
"Z  c #508B4A",
"A  c #4B835D",
"S  c #518356",
"D  c #4B9156",
"F  c #5A9649",
"G  c #639D4E",
"H  c #609449",
"J  c #5EAC43",
"K  c #4AB748",
"L  c #40AD55",
"P  c #4EB953",
"I  c #54BA55",
"U  c #64BC44",
"Y  c #6A9769",
"T  c #57B768",
"R  c #64BD75",
"E  c #6DBF7C",
"W  c #74BF7D",
"Q  c #64C644",
"!  c #6EC14D",
"~  c #67C849",
"^  c #6DC950",
"/  c #73C65A",
"(  c #76CC65",
")  c #7BCB65",
"_  c #79C67E",
"`  c #81CA6A",
"'  c #87CC7A",
"]  c #373584",
"[  c #44198E",
"{  c #421290",
"}  c #67329B",
"|  c #5A11BE",
" . c #561AA2",
".. c #1C5D81",
"X. c #325386",
"o. c #1E648B",
"O. c #1E6A90",
"+. c #2D6E84",
"@. c #366C8A",
"#. c #2D7B86",
"$. c #226C94",
"%. c #226D99",
"&. c #2E7C9C",
"*. c #277696",
"=. c #327997",
"-. c #2E7EA2",
";. c #217CAB",
":. c #2879A7",
">. c #3178A5",
",. c #414085",
"<. c #415C8D",
"1. c #625988",
"2. c #5F0EC2",
"3. c #6417C5",
"4. c #2E829C",
"5. c #2383AD",
"6. c #2B8CAC",
"7. c #3487AC",
"8. c #328BAE",
"9. c #3487A4",
"0. c #3C96A9",
"q. c #2780B1",
"w. c #2985B2",
"e. c #268CB7",
"r. c #248CBB",
"t. c #2A8EB9",
"y. c #2889B6",
"u. c #318AB2",
"i. c #318BB9",
"p. c #2B96BC",
"a. c #3394B9",
"s. c #3297BA",
"d. c #7AADAF",
"f. c #75C384",
"g. c #7EC78A",
"h. c #7CC788",
"j. c #2593C4",
"k. c #2897C9",
"l. c #319ACC",
"z. c #3296C2",
"x. c #2C9DD5",
"c. c #229FD9",
"v. c #2597D0",
"b. c #329DD4",
"n. c #1FA0DB",
"m. c #2FA0CD",
"M. c #32A6CB",
"N. c #31A8C4",
"B. c #25A1D7",
"V. c #2BA3D4",
"C. c #2CA8D5",
"Z. c #25A2DB",
"A. c #2AA3DC",
"S. c #26ACDB",
"D. c #2BACDC",
"F. c #31A8D5",
"G. c #31A5DC",
"H. c #32AEDD",
"J. c #33A3D4",
"K. c #2DB1DC",
"L. c #32B1DD",
"P. c #35BBDD",
"I. c #3BBCDD",
"U. c #35B3D7",
"Y. c #67B6C8",
"T. c #889988",
"R. c #A3B1A1",
"E. c #82C88E",
"W. c #96CF8B",
"Q. c #86CA92",
"!. c #8ED192",
"~. c #94D19C",
"^. c #9CD19B",
"/. c #9AD093",
"(. c #9DD3A6",
"). c #9BD2A6",
"_. c #9CCFBD",
"`. c #A8D2A5",
"'. c #A3D3AC",
"]. c #AFD2AE",
"[. c #BECEBF",
"{. c #ACD4B2",
"}. c #B1D4B6",
"|. c #B5D4BA",
" X c #B9D4BD",
".X c #BED4C1",
"XX c #C3D5C4",
"oX c #C7D5C8",
"OX c #CCD5CC",
/* pixels */
"B.B.B.B.B.B.B.B.Z.A.Z.Z.Z.A.A.c.A.c.A.x.x.G.A.G.b.J.l.G.G.G.G.G.",
"D.D.S.S.D.S.Z.Z.Z.Z.Z.Z.Z.n.n.Z.c.A.A.A.A.G.G.x.@.<.9 i.H.H.H.H.",
"B.Z.n.S.n.Z.S.S.S.A.S.D.S.Z.Z.Z.A.A.A.A.G.H.H.7.,.} }   >.H.G.G.",
"B.Z.Z.K.Z.Z.Z.Z.Z.Z.Z.Z.A.Z.D.D.D.D.C.V.z.i.i.@.= 3.3. .* >.G.G.",
"Z.Z.Z.S.S.Z.n.Z.c.n.Z.n.Z.A.A.A.A.x.u.=.3 y A S y 1.2.2.[ >.G.G.",
"D.S.S.S.S.Z.Z.n.Z.Z.A.c.A.A.A.A.&.e + Z F / U m j D ] { ] >.H.H.",
"D.D.S.D.D.S.D.D.D.D.D.D.A.A.A.&.@ G J ` W.].`.' j h r X.&.G.L.H.",
"S.K.K.S.D.D.D.D.D.D.L.D.D.L.7.@ G ! )  XXXOX.X^.f.h N 7.F.L.H.L.",
"P.P.P.P.P.K.K.H.K.K.L.L.H.a.X H ^ / }.oXOXXX'.(.Q.I a 0.I.I.I.I.",
"C.D.D.S.S.P.I.I.P.I.I.I.M.: x U ^ `.oXOXoX{.'.(.E.n % 9.H.H.L.L.",
"C.D.D.D.D.H.L.L.L.L.L.H., & m Q ^.XXOXOX{.'.).).f.k 1 z.H.L.H.H.",
"Z.Z.Z.A.A.D.D.D.H.H.H.w $ M ~ /.XXOXOX{.'.).E.E I f w l.G.A.A.A.",
"B.A.B.A.A.A.G.G.G.G.a.r v U W.XXOXOX|.'.).g.T V h $ *.x.A.A.A.A.",
"A.B.A.A.A.A.G.G.G.b.9.+ m ' XXOXOX.X'.).E.T B B d % 9.A.A.A.A.Z.",
"H.D.V.:.5 ....G.z.u.> G / ^.oXOX.X'.(.Q.T B B d $ ; A.L.H.D.D.D.",
"B.A.x.y.F.t.w.9.< r l / ) ~.|. X'.(.Q.R B B d a ; j.A.A.A.n.A.n.",
"G.G.x.:.8 %.:.=.k m ~ ( !.(.(.'.(.).f.B B s i . u.A.Z.A.c.Z.Z.A.",
"G.H.$.%.b.l.: u Y ( ^.].`.(.(.(.(.).E V s i o &.A.A.Z.Z.n.Z.A.A.",
"G.G.:.w.b.@.u R. X'.'.}. X'.(.(.(.f.f.B f O *.A.A.Z.Z.A.Z.A.A.A.",
"G.G.w...i.u T.|.XX X'.'.{.{.'.(.f.K b z + +.A.B.Z.Z.D.D.A.A.A.Z.",
"H.H.H.q t.d. X X'.|. X'.'.'.(.h.I c O A *.S.S.k.v.n.A.A.A.A.A.D.",
"H.H.H.H.$.6 Y. X X'.}.}.(.(.E.T g # 4.C.P.K.K.O.k.D.D.K.D.D.D.S.",
"L.L.L.D.D.N.7 0._. X'.'.(.~.f.B f 4 o.O.K.K.S.5 D.L.K.K.K.S.D.S.",
"I.I.I.F.6.H.K.5.6 7 0 0 0 , , - - < s.P.P.K.6 t.L.D.K.K.S.S.K.P.",
"U.H.K.C.w.o.7 6 y.D.D.D.D.N.C 2 4.p.C.5.:.6 M.I.P.P.P.P.P.P.K.S.",
"H.D.D.K.D.D.D.S.;.......6 o.....o.6 6 e.k.D.D.K.L.L.K.D.S.K.S.S.",
"H.D.D.D.D.Z.r.5.;.;.j.A.B.B.Z.D.C.D.D.D.S.K.D.D.S.D.S.S.S.S.S.S.",
"B.Z.Z.Z.Z.B.j.p.;.j.o.....;.v.A.Z.Z.A.A.D.Z.D.D.S.S.S.S.S.S.n.n.",
"c.n.Z.Z.D.L.D.L.D.D.D.D.r.r.c.Z.Z.A.A.A.C.B.Z.Z.S.S.n.n.S.n.S.n.",
"H.K.H.A.Z.Z.Z.Z.A.Z.Z.A.Z.A.G.L.D.H.D.D.S.S.Z.Z.n.n.n.n.n.n.S.S.",
"A.Z.A.A.A.Z.A.A.Z.A.A.Z.A.Z.Z.Z.A.A.Z.Z.n.S.S.n.S.S.S.S.S.n.n.n.",
"x.A.A.A.A.A.A.A.A.x.A.A.x.A.x.A.B.c.A.A.B.C.n.B.B.n.B.n.S.n.n.n."
};
