/* XPM */
static char *dfc08ec00c4442bde69346ac0ecc409aG624fC7EZ3RjSCUf[] = {
/* columns rows colors chars-per-pixel */
"32 32 169 2 ",
"   c #64452F",
".  c #674A33",
"X  c #694D35",
"o  c #6A543C",
"O  c #755A3F",
"+  c #3F5854",
"@  c #3D656D",
"#  c #3C666B",
"$  c #3D6970",
"%  c #585947",
"&  c #415956",
"*  c #465B56",
"=  c #6B5E49",
"-  c #6A5C47",
";  c #775841",
":  c #755B4C",
">  c #665E54",
",  c #4B615C",
"<  c #53645F",
"1  c #7B6145",
"2  c #75715F",
"3  c #42696D",
"4  c #526B66",
"5  c #576863",
"6  c #426C70",
"7  c #447172",
"8  c #49767D",
"9  c #577676",
"0  c #727164",
"q  c #804E32",
"w  c #975738",
"e  c #9B5D3E",
"r  c #AD5B3A",
"t  c #BD5E39",
"y  c #9A6E3E",
"u  c #B06B3B",
"i  c #AB743D",
"p  c #DB5A2F",
"a  c #DC5C31",
"s  c #E75F30",
"d  c #DD6136",
"f  c #D9663B",
"g  c #E76030",
"h  c #E86131",
"j  c #E96939",
"k  c #F76934",
"l  c #FB6F38",
"z  c #F77436",
"x  c #F87B37",
"c  c #FA753D",
"v  c #F97C3A",
"b  c #F77639",
"n  c #996549",
"m  c #9D7242",
"M  c #AA6A46",
"N  c #A06544",
"B  c #BC6740",
"V  c #BA6941",
"C  c #B76B45",
"Z  c #A77E4D",
"A  c #AB7F4E",
"S  c #B47C43",
"D  c #B6754D",
"F  c #887966",
"G  c #C2734C",
"H  c #C37A52",
"J  c #D67A4C",
"K  c #FA7741",
"L  c #F57B44",
"P  c #FB7B43",
"I  c #FB7F48",
"U  c #E17F50",
"Y  c #E67644",
"T  c #65827D",
"R  c #FC853A",
"E  c #FC8B3E",
"W  c #FE953F",
"Q  c #FD9A3C",
"!  c #A6804E",
"~  c #B78048",
"^  c #A68151",
"/  c #A98453",
"(  c #A98858",
")  c #BF8451",
"_  c #948663",
"`  c #888367",
"'  c #C28E56",
"]  c #CF9756",
"[  c #FB8644",
"{  c #FC8944",
"}  c #FA834C",
"|  c #FB8B4A",
" . c #EE9F4F",
".. c #FD9640",
"X. c #FC9D42",
"o. c #E28854",
"O. c #FC9853",
"+. c #EEA04F",
"@. c #FDA147",
"#. c #FDA34A",
"$. c #EEA252",
"%. c #FAA651",
"&. c #F9A954",
"*. c #F7AE5C",
"=. c #F8AD5B",
"-. c #F6B365",
";. c #F5B76B",
":. c #F4B86E",
">. c #F4BC74",
",. c #F3BF7A",
"<. c #F1C27E",
"1. c #3E7482",
"2. c #417A83",
"3. c #407483",
"4. c #3B8B9F",
"5. c #3889A4",
"6. c #3E97AE",
"7. c #348DB4",
"8. c #2E95BB",
"9. c #3596BC",
"0. c #4C828C",
"q. c #53858D",
"w. c #47879F",
"e. c #448B96",
"r. c #2C9CCE",
"t. c #379AC5",
"y. c #329CCD",
"u. c #2E9FD4",
"i. c #229FD9",
"p. c #269ED3",
"a. c #309DD0",
"s. c #1FA0DB",
"d. c #2BA3CC",
"f. c #33A5CC",
"g. c #3BA5C8",
"h. c #3AB2CD",
"j. c #25A2D6",
"k. c #2BA2D6",
"l. c #2EAAD5",
"z. c #24A2DB",
"x. c #2BA3DC",
"c. c #25ACDB",
"v. c #2BADDC",
"b. c #32A2D7",
"n. c #32ACD7",
"m. c #31A4DC",
"M. c #33AEDE",
"N. c #30AEDE",
"B. c #32ADDC",
"V. c #2BB2DB",
"C. c #32B0DE",
"Z. c #39B6DC",
"A. c #34BBDC",
"S. c #3DBCDE",
"D. c #3ABCDD",
"F. c #EFCB8D",
"G. c #F1C582",
"H. c #F1CA8A",
"J. c #EECE91",
"K. c #EED296",
"L. c #EDD49A",
"P. c #ECD9A2",
"I. c #EBDDA9",
"U. c #EAE0AF",
"Y. c #E9E8BB",
"T. c #E8E5B6",
"R. c #E9EBC1",
"E. c #E6F1CB",
"W. c #E5F6D3",
/* pixels */
"k.j.j.j.k.j.j.z.j.j.j.x.z.z.i.i.x.i.x.u.x.b.b.m.m.b.m.m.b.m.m.m.",
"v.c.c.c.v.c.z.z.x.z.s.z.z.z.z.i.i.x.x.x.x.x.x.b.m.a.t.b.B.M.M.M.",
"j.z.z.j.5.` ( ( / ! ! Z A A A A A A A A Z ! ! ^ / ( _ q.y.m.m.m.",
"j.z.z.6.9 ) $.$.+.+. . .+.+.+.+. . .+.$.+.+.+.+.+.$.] 2 w.m.m.m.",
"z.z.s.= D %.%.#.#.@.@.@.@.@.@.@.X.O.@.@.@.#.@.@.#.#.O.o.1 x.x.x.",
"v.V.c.= D } | ..Q W W ..W x l l c z v E ..W W W R K } U n v.M.M.",
"v.c.c.= M L P v x x x x x z k k k k k z x x x v c c K J 1 M.M.M.",
"v.v.c.% o V f d p p p p p p p p p p p p p p a a a f G ; % M.M.M.",
"Z.A.A.e.0.> r j j g g g s s s s s s s s s h h h j t : 0.e.S.S.S.",
"l.V.v.c.l.# w c b R R R R R R R R R R R R R R E { u * g.M.M.C.M.",
"v.c.v.v.b.# e P E Q Q Q Q Q Q &.&.Q Q Q Q Q Q X.#.i < g.N.N.C.C.",
"k.z.z.x.u.3 e [ Q Q Q Q Q X.>.I.U.>.Q Q Q Q Q Q #.S < f.m.N.x.x.",
"z.i.z.x.u.6 N [ @.Q Q Q Q %.I.E.E.U.*.@.Q Q Q X.#.S 5 y.x.x.x.i.",
"k.x.x.x.u.6 N } X.Q Q Q %.L.W.L.G.W.U.=.Q Q Q X.#.S 5 y.x.x.z.z.",
"N.v.N.x.u.3.n Y { Q Q X.%.K.<.X.@.:.L.*.Q Q X.X. .A 9 a.N.v.N.v.",
"x.x.x.N.M.t.9 q { X.X.Q #.H.;.Q Q *.K.=.Q W X.X.i 4 9.x.z.z.z.z.",
"x.N.m.x.m.u.1.  | @.Q Q X.$.#.Q Q @.&.@.Q Q Q @.y # r.j.z.z.z.x.",
"m.M.m.m.m.u.1.. | @.&.T.U.>.Q Q Q Q *.L.Y.*.@.#.y # r.j.i.z.z.x.",
"m.m.m.x.m.m.3.. | @.&.E.J.*.@.Q X.Q &.<.E.:.@.#.y $ r.j.z.x.x.x.",
"m.m.m.m.x.M.2.. { &.<.K.&.Q -.-.*.;.X.@.F.<.*.#.y $ f.v.x.x.z.x.",
"M.M.M.M.V.n.2.. { >.I.X.X.*.Y.P.H.R.:.X.X.P.H.@.y $ r.x.x.x.x.v.",
"M.M.M.M.C.n.2.. [ >.U.*.*.G.Y.K.G.Y.K.-.$.I.F.@.y 6 f.v.v.v.c.v.",
"C.C.M.N.V.Z.1.. [ -.L.U.P.:.Q Q Q Q *.L.U.P.<.@.m 6 n.v.V.v.c.c.",
"S.S.D.S.A.A.1.. { X.@.@.X.Q Q Q Q Q Q X.@.@.@.@.y 6 b.V.c.c.C.A.",
"N.N.V.N.v.v.2.. | X.Q Q Q Q Q Q Q Q Q Q Q Q X.#.y 7 h.A.A.A.V.c.",
"v.N.v.V.v.v.2.X | X.Q Q Q Q Q Q Q Q Q Q Q Q @.#.m 7 d.V.V.V.c.c.",
"n.c.v.c.v.k.3.o } | R W Q Q X.Q Q Q Q Q Q X.#.#.m 7 d.c.c.c.c.c.",
"x.x.z.x.x.x.2.O } P K [ R R R { X.Q X.Q @.@.X.%./ 8 d.V.c.c.c.s.",
"z.z.z.z.v.v.t.q.M } I P K K K P { v { [ | | O.' T 8.j.s.s.s.s.s.",
"x.v.v.N.j.z.z.9.0 H D V B B u B u G B B V D H F 5.s.s.s.s.c.c.c.",
"x.x.x.z.z.x.x.z.7.* * & & & + & + + & & & 4 4 4.c.c.c.c.c.s.s.s.",
"x.x.x.u.x.x.x.x.m.a.a.a.a.a.u.y.a.y.r.r.r.p.d.d.s.s.z.s.j.s.j.j."
};
