/* XPM */
static char * e_xpm[] = {
"32 32 298 2",
"  	c #79DAC5",
". 	c #6BC3B0",
"+ 	c #8B905E",
"@ 	c #8F740E",
"# 	c #A79024",
"$ 	c #B7A12E",
"% 	c #C8B337",
"& 	c #C6B136",
"* 	c #74D1BD",
"= 	c #EEF699",
"- 	c #F0F8A1",
"; 	c #EEF79C",
"> 	c #F2FAA8",
", 	c #EDF595",
"' 	c #E9F288",
") 	c #E9EF86",
"! 	c #EAEF7B",
"~ 	c #E1DC48",
"{ 	c #DCC842",
"] 	c #DECC44",
"^ 	c #E0E260",
"/ 	c #DFEE4B",
"( 	c #EEDA4B",
"_ 	c #EBDE4B",
": 	c #EEDC4B",
"< 	c #87A682",
"[ 	c #F1F8A3",
"} 	c #EFF79C",
"| 	c #F1F8A2",
"1 	c #E6F17D",
"2 	c #E8F381",
"3 	c #EFE166",
"4 	c #EBDC5F",
"5 	c #E7DDA8",
"6 	c #DFCC56",
"7 	c #EEDF8A",
"8 	c #DBC742",
"9 	c #E7E54B",
"0 	c #EAE14B",
"a 	c #E8E34B",
"b 	c #EDDD4B",
"c 	c #76B59D",
"d 	c #E8F288",
"e 	c #D8DA8C",
"f 	c #F9FCD9",
"g 	c #FDFEFD",
"h 	c #F7FAFA",
"i 	c #FFFFFF",
"j 	c #E4E84B",
"k 	c #F1F8A4",
"l 	c #E3F066",
"m 	c #EAE764",
"n 	c #F0EB84",
"o 	c #EDF5EA",
"p 	c #D9D190",
"q 	c #CFBA3B",
"r 	c #EBDB4A",
"s 	c #E4E74B",
"t 	c #E0ED4B",
"u 	c #E3D547",
"v 	c #F2F9A7",
"w 	c #ECF595",
"x 	c #E1EF5B",
"y 	c #EDF59A",
"z 	c #EBDE6A",
"A 	c #E1DCD4",
"B 	c #D8DFB7",
"C 	c #CECC9A",
"D 	c #E8D448",
"E 	c #E8E24B",
"F 	c #EDDC4B",
"G 	c #E7F27D",
"H 	c #DFE978",
"I 	c #F5F8F7",
"J 	c #D2CDA1",
"K 	c #E6D247",
"L 	c #E3D04D",
"M 	c #E5D648",
"N 	c #E2EA4B",
"O 	c #7C9977",
"P 	c #77D6C2",
"Q 	c #D8DF6B",
"R 	c #C5CA3C",
"S 	c #EAF2F0",
"T 	c #FDFEFE",
"U 	c #EAEDC2",
"V 	c #ECF7F4",
"W 	c #D4C840",
"X 	c #81680B",
"Y 	c #6DC5B1",
"Z 	c #7B630A",
"` 	c #E8F286",
" .	c #D3E4DF",
"..	c #F7F8F8",
"+.	c #E6F189",
"@.	c #D8D443",
"#.	c #61B1A0",
"$.	c #57A090",
"%.	c #6E5808",
"&.	c #E7F181",
"*.	c #E5EC61",
"=.	c #DCEA49",
"-.	c #C8CF3E",
";.	c #F0F7C1",
">.	c #DCD67A",
",.	c #E7E44B",
"'.	c #E9E14B",
").	c #866D0C",
"!.	c #FEFFFC",
"~.	c #EBF4F2",
"{.	c #EAEEED",
"].	c #F8F9F9",
"^.	c #EEE9D5",
"/.	c #E4D14F",
"(.	c #EAD94A",
"_.	c #B8A22F",
":.	c #6D8668",
"<.	c #569E8F",
"[.	c #61795E",
"}.	c #C3C960",
"|.	c #E4F06F",
"1.	c #EBEC9E",
"2.	c #E5D57B",
"3.	c #D7CDAD",
"4.	c #ECD84A",
"5.	c #E4D146",
"6.	c #D8C643",
"7.	c #745D09",
"8.	c #3E7469",
"9.	c #CED964",
"0.	c #E0CC44",
"a.	c #E3CF45",
"b.	c #E6D548",
"c.	c #B2B635",
"d.	c #BCBD36",
"e.	c #B5B231",
"f.	c #B3B030",
"g.	c #CFD943",
"h.	c #D2DD44",
"i.	c #E0E749",
"j.	c #D0D141",
"k.	c #CECD3F",
"l.	c #E5E74B",
"m.	c #EEDB4B",
"n.	c #D3CB3F",
"o.	c #735D0A",
"p.	c #65A591",
"q.	c #3C3002",
"r.	c #A08F1A",
"s.	c #908116",
"t.	c #7D6F12",
"u.	c #867714",
"v.	c #8B7C15",
"w.	c #827413",
"x.	c #9A8A19",
"y.	c #988818",
"z.	c #9D8C19",
"A.	c #70620D",
"B.	c #D4C13D",
"C.	c #BFAE36",
"D.	c #9B8D2A",
"E.	c #AC9D30",
"F.	c #968829",
"G.	c #8C7F25",
"H.	c #877A24",
"I.	c #74691D",
"J.	c #756A17",
"K.	c #443603",
"L.	c #59A393",
"M.	c #E5D248",
"N.	c #D7C543",
"O.	c #C0AF3A",
"P.	c #BBAB39",
"Q.	c #B6A737",
"R.	c #A49632",
"S.	c #9E902F",
"T.	c #A99A33",
"U.	c #AC9D34",
"V.	c #8C8028",
"W.	c #5C5215",
"X.	c #847826",
"Y.	c #332802",
"Z.	c #423403",
"`.	c #5DA999",
" +	c #649079",
".+	c #D6EC64",
"++	c #C2B23C",
"@+	c #AFA035",
"#+	c #A99A32",
"$+	c #A99932",
"%+	c #988B2C",
"&+	c #897D27",
"*+	c #91852B",
"=+	c #9F9030",
"-+	c #675E1B",
";+	c #A79833",
">+	c #3B2E02",
",+	c #516E5A",
"'+	c #5CA898",
")+	c #549A8B",
"!+	c #715B08",
"~+	c #D7E548",
"{+	c #A39029",
"]+	c #CFBD40",
"^+	c #C7B63D",
"/+	c #B0A135",
"(+	c #988B2E",
"_+	c #9E9030",
":+	c #988B2D",
"<+	c #8E8229",
"[+	c #807524",
"}+	c #7B7122",
"|+	c #877C27",
"1+	c #8C7F29",
"2+	c #847825",
"3+	c #7B7022",
"4+	c #73691F",
"5+	c #827724",
"6+	c #73681F",
"7+	c #756B20",
"8+	c #372B02",
"9+	c #3F3202",
"0+	c #539889",
"a+	c #4A897B",
"b+	c #427B6F",
"c+	c #7C640A",
"d+	c #9D9A29",
"e+	c #B2A032",
"f+	c #C3B13A",
"g+	c #7A6E22",
"h+	c #91842A",
"i+	c #6F651D",
"j+	c #312602",
"k+	c #3E3103",
"l+	c #271E02",
"m+	c #509485",
"n+	c #4E9081",
"o+	c #705908",
"p+	c #473803",
"q+	c #2F2502",
"r+	c #2C2402",
"s+	c #382D02",
"t+	c #2F2602",
"u+	c #3A2E02",
"v+	c #372C02",
"w+	c #2B2202",
"x+	c #2A2002",
"y+	c #201802",
"z+	c #37695E",
"A+	c #5EAB9A",
"B+	c #64B5A4",
"C+	c #509384",
"D+	c #3A6F63",
"E+	c #448073",
"F+	c #427C6F",
"G+	c #3B7064",
"H+	c #3C7267",
"I+	c #386B60",
"J+	c #3F776B",
"K+	c #3D7468",
"L+	c #35665B",
"M+	c #36685D",
"N+	c #326056",
"O+	c #244941",
"P+	c #295148",
"Q+	c #3A6D62",
"R+	c #2F5B51",
"S+	c #396B60",
"T+	c #4C8D7F",
"U+	c #6BC1AF",
"V+	c #73CFBB",
"W+	c #5FAE9D",
"X+	c #4A8A7C",
"Y+	c #3D7367",
"Z+	c #346459",
"`+	c #34645A",
" @	c #305D54",
".@	c #2B544B",
"+@	c #315E55",
"@@	c #2E5A50",
"#@	c #2C564D",
"$@	c #488578",
"%@	c #6FC9B6",
"&@	c #67BCA9",
"*@	c #569E8E",
"=@	c #529989",
"-@	c #3B7165",
";@	c #437E71",
">@	c #498779",
",@	c #4B8A7D",
"'@	c #519687",
")@	c #519586",
"!@	c #4B8B7D",
"~@	c #40796C",
"{@	c #74D2BE",
"]@	c #569D8E",
"^@	c #5AA594",
"/@	c #4E9082",
"                                                                ",
"                                                                ",
"                                                                ",
"                                              . . . . . .       ",
"          + @ @ @ @ @ @ @ @ @ @ @ @ @ @ @ @ # # $ % & @ *       ",
"          @ = - ; > , ' ' ) ! ~ { ] ^ / ( ( ( _ ( ( : @         ",
"        < @ > [ } | 1 / 2 3 4 5 6 7 8 9 0 9 / / / a b @ c       ",
"        @ > > ' d / / / > e f g h i & 8 9 / / / / j ( @ @       ",
"        @ > k ' / l m n > i i i / o i p q r s / / t ( u @       ",
"        @ v w x / y ( z ( A i / / / B C D ( ( 9 / / E F @       ",
"      < @ | G / H ( ( I J K ( / / / ( ( L A & M 9 / N ( @ O P   ",
"      @ Q ' / R > ( S T U _ / / / / ( j i i V & W / / ( @ X Y   ",
"    Y Z ` ' / / >  ...+./ / / / / / / / i i I @.( / / 9 9 X #.Y ",
"    $.%.' &./ *.3 i i / / / / =.-./ / / / ;.i >.( / / ,.'.X #.#.",
"    $.).' / / *.( !.i i i ~.i ( ( i i i {.].^./.(./ / j ( _.:.#.",
"  <.[.}.|./ / / ( ( 1.i i {.i 2.( i i i i 3.4.5.N / / / 6.6.7.#.",
"  8.7.9.|./ / / ( ( ( ( ( ( ( ( D 0.0.0.0.a.b./ / / ( s 6.6.7.#.",
"  $.7.c.R R R R R R d.d.e.f.g.h.N N N i.j.k./ / l.( ( ( m.n.o.#.",
"  p.q.r.r.r.r.r.s.s.t.u.u.v.w.w.w.w.w.w.v.v.v.s.s.x.x.y.z.r.A.#.",
"  p.q.B.B.B.B.B.C.C.D.D.E.E.E.D.F.G.G.G.G.G.G.G.G.G.D.H.I.J.K.L.",
"  #.7./ / / l.( ( ( M.N.O.P.Q.R.S.S.S.S.S.S.S.T.T.U.V.W.X.Y.Z.L.",
"  `. +@ / .+/ ( ( ( N.++++@+#+S.S.S.S.$+%+&+V.*+%+=+-+;+S.>+,+'+",
"  #.)+!+@ / / ~+{+]+]+^+/+(+_+:+<+[+[+}+|+1+2+3+4+5+6+7+8+9+0+L.",
"    a+b+c+X c.c.d+e+f+P.#+@+@+@+@+:+g+<+<+h+<+4+i+7+<+j+k+l+m+Y ",
"    $.n+m+o+q.p+p+p+p+p+p+p+p+K.K.q.q+r+q+s+>+t+u+v+w+x+y+z+A+  ",
"    B+C+D+E+F+F+G+G+H+I+J+I+K+L+M+L+N+O+P+P+M+L+Q+N+R+L+S+T+U+  ",
"    V+W+X+E+J+Y+Y+D+Z+Z+D+`+ @.@R+ @z+z+z++@@@#@N+ @F+$@B+Y %@  ",
"    Y Y &@*@=@F+-@;@n+n+m+m+>@,@'@$@m+n+n+)@!@!@$@8.~@n+'@{@    ",
"      Y Y #.#.Y L.]@$.$.)+n+n+n+n+^@^@A+^@)+)+!@!@)+/@A+%@      ",
"                                                                ",
"                                                                ",
"                                                                "};
