/* XPM */
static char *result[] = {
/* columns rows colors chars-per-pixel */
"32 32 68 1 ",
"  c gray13",
". c #212020",
"X c #212122",
"o c #222A2F",
"O c #232F36",
"+ c #22292E",
"@ c #212120",
"# c #222527",
"$ c #2E749C",
"% c #35A1DF",
"& c #35A1E0",
"* c #35A3E3",
"= c #2C678A",
"- c #222628",
"; c #3085B5",
": c #38B5FE",
"> c #3186B7",
", c #2E769F",
"< c #2E77A0",
"1 c #2E78A2",
"2 c #274A5F",
"3 c #21201F",
"4 c #3084B4",
"5 c #37AEF3",
"6 c #264456",
"7 c #264455",
"8 c #211F1E",
"9 c #211F1F",
"0 c #264252",
"q c #201D1A",
"w c #211E1D",
"e c #37B3FA",
"r c #2F7BA8",
"t c #2C688C",
"y c #2C698D",
"u c #2C6B8F",
"i c #274B60",
"p c #212222",
"a c #3083B3",
"s c #38B7FF",
"d c #37ADF1",
"f c #36AAED",
"g c #36ACF0",
"h c #2D7097",
"j c #37B0F6",
"k c #295670",
"l c #243741",
"z c #243843",
"x c #243844",
"c c #232E35",
"v c #264354",
"b c #37AEF4",
"n c #27495C",
"m c #222528",
"M c #22272A",
"N c #3294CC",
"B c #3188BA",
"V c #3188BB",
"C c #318ABD",
"Z c #22282B",
"A c #212426",
"S c #2B6587",
"D c #318ABE",
"F c #318CC0",
"G c #2D7299",
"H c #22282C",
"J c #222629",
"K c white",
/* pixels */
"                                ",
"                                ",
"                                ",
"                                ",
"                                ",
"                                ",
"            .........           ",
"           XoOOOOOOO+           ",
"          @#$%%&&&&*=           ",
"          @-;:>,<<<123          ",
"          @-4563  X             ",
"          @-4578                ",
"          @-4579                ",
"          @-450qwww9            ",
"          @-4ertyyuip           ",
"          @-asdfffghp           ",
"          @-4jklzzxc            ",
"          @-45vw333.            ",
"          @-4579                ",
"          @-4578....@           ",
"          @-4bnmMMMM-X          ",
"          @-;sNBVVVChZ.         ",
"           ASDDDDDDFGH.         ",
"            mZZZZZZZJX          ",
"            @.......@           ",
"                                ",
"                                ",
"                                ",
"                                ",
"                                ",
"                                ",
"                                "
};
