/* XPM */
static char * p_xpm[] = {
"32 32 187 2",
"  	c #79DAC5",
". 	c #74D1BC",
"+ 	c #86C4B5",
"@ 	c #66B9A7",
"# 	c #D1CECE",
"$ 	c #989898",
"% 	c #5D5A5A",
"& 	c #6BC3B0",
"* 	c #535050",
"= 	c #6BAF9F",
"- 	c #97B7AE",
"; 	c #4F4D4D",
"> 	c #5B9689",
", 	c #6CC4B1",
"' 	c #9DC7BD",
") 	c #4A4747",
"! 	c #589285",
"~ 	c #61B09F",
"{ 	c #A3D5C9",
"] 	c #595656",
"^ 	c #7AD2BE",
"/ 	c #A7D0C5",
"( 	c #5A5757",
"_ 	c #5DAA99",
": 	c #5DA999",
"< 	c #E1B2AD",
"[ 	c #F1A8A8",
"} 	c #EB9D9D",
"| 	c #E79B9B",
"1 	c #A29E9E",
"2 	c #569E8E",
"3 	c #68BDAB",
"4 	c #ACAA9F",
"5 	c #F09F9F",
"6 	c #EF7B7B",
"7 	c #EE6D6D",
"8 	c #DE6363",
"9 	c #DB6161",
"0 	c #C45252",
"a 	c #9E3333",
"b 	c #810E0E",
"c 	c #725D54",
"d 	c #D99797",
"e 	c #BA877E",
"f 	c #558578",
"g 	c #74D2BE",
"h 	c #5BA796",
"i 	c #509384",
"j 	c #6CC3B0",
"k 	c #478376",
"l 	c #6FC9B5",
"m 	c #5B9283",
"n 	c #9B8D82",
"o 	c #C06763",
"p 	c #7E645A",
"q 	c #7BC6B3",
"r 	c #778276",
"s 	c #53998A",
"t 	c #5FAE9D",
"u 	c #4A897B",
"v 	c #57A090",
"w 	c #427B6F",
"x 	c #569E8F",
"y 	c #41796D",
"z 	c #5CA897",
"A 	c #6F8276",
"B 	c #BA8F85",
"C 	c #BA9086",
"D 	c #9A3837",
"E 	c #7CAF9E",
"F 	c #68BDAA",
"G 	c #B8A89A",
"H 	c #E8A2A2",
"I 	c #70CAB7",
"J 	c #559B8C",
"K 	c #7A8B7E",
"L 	c #DF7D79",
"M 	c #E27371",
"N 	c #74C1AE",
"O 	c #EF8888",
"P 	c #ACAAA0",
"Q 	c #BB8F85",
"R 	c #8AB6A5",
"S 	c #4F9284",
"T 	c #66BAA8",
"U 	c #579F8F",
"V 	c #6AC1AE",
"W 	c #4B8B7D",
"X 	c #D66866",
"Y 	c #8C7268",
"Z 	c #78D8C3",
"` 	c #79BFAC",
" .	c #468275",
"..	c #7E0E0E",
"+.	c #7AAD9C",
"@.	c #78BCAA",
"#.	c #519587",
"$.	c #58A191",
"%.	c #BC5050",
"&.	c #58A292",
"*.	c #69BEAB",
"=.	c #66AC9B",
"-.	c #3E7569",
";.	c #C95656",
">.	c #5D8678",
",.	c #519586",
"'.	c #75D3BE",
").	c #EA6D6D",
"!.	c #6EC8B5",
"~.	c #549A8B",
"{.	c #6FC8B5",
"].	c #63B4A3",
"^.	c #64B5A4",
"/.	c #9ACAB8",
"(.	c #C46C69",
"_.	c #7C0D0D",
":.	c #629C8C",
"<.	c #6CBDAA",
"[.	c #AB8B81",
"}.	c #37695E",
"|.	c #478578",
"1.	c #447E71",
"2.	c #4D8F81",
"3.	c #3A6E63",
"4.	c #D66161",
"5.	c #63887A",
"6.	c #42786C",
"7.	c #539889",
"8.	c #73CFBB",
"9.	c #5BA797",
"0.	c #842929",
"a.	c #E56969",
"b.	c #559C8C",
"c.	c #5EAC9B",
"d.	c #730B0B",
"e.	c #639183",
"f.	c #498679",
"g.	c #4D8E80",
"h.	c #7A0D0D",
"i.	c #3C7367",
"j.	c #509385",
"k.	c #4A8A7C",
"l.	c #DC6565",
"m.	c #49887B",
"n.	c #7F877B",
"o.	c #519687",
"p.	c #6AC0AD",
"q.	c #D67874",
"r.	c #BA5F5D",
"s.	c #6E0A0A",
"t.	c #67A293",
"u.	c #478577",
"v.	c #4E897C",
"w.	c #A2716A",
"x.	c #437E71",
"y.	c #36675C",
"z.	c #5BA695",
"A.	c #509485",
"B.	c #E96969",
"C.	c #8E2D2D",
"D.	c #40796D",
"E.	c #437E72",
"F.	c #4C8D7F",
"G.	c #6F0A0A",
"H.	c #84211F",
"I.	c #C47A74",
"J.	c #458174",
"K.	c #609A8B",
"L.	c #A8AA9C",
"M.	c #DD6262",
"N.	c #61AA9A",
"O.	c #5BA595",
"P.	c #4E9183",
"Q.	c #49877A",
"R.	c #6E2421",
"S.	c #CC5757",
"T.	c #E16F6D",
"U.	c #57A191",
"V.	c #559D8E",
"W.	c #670909",
"X.	c #620808",
"Y.	c #630808",
"Z.	c #3D6056",
"`.	c #59A393",
" +	c #5E9788",
".+	c #3C7266",
"++	c #417A6E",
"                                                                ",
"                                                        .   +   ",
"                                                      @ # $ %   ",
"                                              & & & & # $ * =   ",
"                                            & & & - # $ ; > ,   ",
"                                            & & ' # $ ) ! ~ ,   ",
"                                              { # $ ) ! ~ ,     ",
"                                            { # $ ] ! ~ ,       ",
"                                    ^     / # $ ( _ :           ",
"                          < [ [ } | [ [ [ [ 1 % ~ 2 3           ",
"                    , 4 [ 5 6 7 6 6 7 8 9 0 a b c ,             ",
"                , , d [ e f g h g i j k l m n o a b p q         ",
"              , , [ [ r s k t u t u v w x y z A B C D b E       ",
"          ~ F G [ H l i I h g h g h g J . t g s   K L M b       ",
"      , ~ N O [ P k s k h u t u h u J w t u h u t k J Q b .     ",
"  , , ~ R [ [ S   t T U V v l v V h ~ W , J , J , W V X Y Z     ",
"  , , ` d [  .y t u h u J u t u h u J w t u t u t w 7 ..+.      ",
"g , @.H H S . h I h I h I h g h F h F #.I h . $.T %.b &.*.      ",
", =.7 O s u t u J u h u h u t u J u J w h u z -.;.b >.,.'.      ",
"F ~ ).7 !.~.{.v ].v V h g v I v ^.v F #.I h /.(._.:. .W         ",
"  <._.7 [.}.|.1.v k #.w 2.w J w W w W 3.#.w 4.b 5.6.7.          ",
"8.9.~ 0.7 a.i b.c.,.F h l t   t , t g J g 4.d.e.f.g.,           ",
", g.2 z h.7 a.i.j.k.v u v u t u h u t }.l.b ~ m.g.F g           ",
", ~ 2 2 7._.a.4.n.o.& U p.t   h I h q.r.s.t.2 2 ~ g             ",
"g : 2 7.u.v.d.7 a.w.x.y.z.u t u A.4.B.C.~ 2 7.~                 ",
"  ~ 7.~ D.E.F.G.H.7 I.J.t K.L.4.7 M.d.N.2 ~ ~ ,                 ",
"  ~ 2 V O.P.Q.F.R.b S.7 T.4.7 7 b G.2 2 2 ~ ,                   ",
"    2 J U.V.E.F.F.W.d.d.d.d.X.Y.Z.m.`.~ ~ ,                     ",
"    , , ~ 2 `.2 2 `.: :  +: y .+++7., ~ ,                       ",
"      , F 2 7.2 g.S : 2 2 2 : 7., ~ , ,                         ",
"          , ~ 7.g.g.2 2 7.~ ~ ~ ~ ,                             ",
"              I F ~ ~ F I F g g g                               "};
