/* XPM */
static char *_e2b1eae92b7456fa69693250110caf6j78phhulU2bxIL7o[] = {
/* columns rows colors chars-per-pixel */
"32 32 177 2 ",
"   c #0E0E0A",
".  c #11110E",
"X  c #161711",
"o  c #1B2424",
"O  c #2D2D2A",
"+  c #373736",
"@  c #393939",
"#  c #3A3A35",
"$  c #273F41",
"%  c #274045",
"&  c #28474E",
"*  c #3E4F4D",
"=  c #334D55",
"-  c #2E5059",
";  c #34575D",
":  c #3C5F64",
">  c #33606F",
",  c #4F4F4E",
"<  c #474744",
"1  c #5E5E45",
"2  c #51514D",
"3  c #495957",
"4  c #445753",
"5  c #535352",
"6  c #5A5A53",
"7  c #58695C",
"8  c #54675C",
"9  c #63634A",
"0  c #6C6C52",
"q  c #626259",
"w  c #68685E",
"e  c #707155",
"r  c #75765B",
"t  c #406466",
"y  c #456969",
"u  c #516860",
"i  c #5F766A",
"p  c #517672",
"a  c #686E69",
"s  c #687561",
"d  c #677966",
"f  c #70706D",
"g  c #7C7C6B",
"h  c #697F76",
"j  c #797978",
"k  c #5F857D",
"l  c #668175",
"z  c #7A8E7E",
"x  c #80807E",
"c  c #8B8D7C",
"v  c #848774",
"b  c #91917C",
"n  c #2F7795",
"m  c #367C99",
"M  c #437585",
"N  c #3385A6",
"B  c #3987A9",
"V  c #378CAD",
"C  c #3C91AF",
"Z  c #308EB7",
"A  c #2F93B6",
"S  c #3A96B5",
"D  c #3F9EB7",
"F  c #3190BA",
"G  c #3C9EBB",
"H  c #5D8582",
"J  c #5D8E8C",
"K  c #5E8884",
"L  c #5D908C",
"P  c #4F8898",
"I  c #548D95",
"U  c #5D8F90",
"Y  c #518C9A",
"T  c #5A8E9B",
"R  c #569097",
"E  c #5E9097",
"W  c #608F8F",
"Q  c #6D878B",
"!  c #778C85",
"~  c #63908A",
"^  c #618B90",
"/  c #609090",
"(  c #629099",
")  c #77999C",
"_  c #4D93A4",
"`  c #4B9BAB",
"'  c #5294A4",
"]  c #5195AC",
"[  c #4A9CB3",
"{  c #4497B6",
"}  c #2D9CCF",
"|  c #319BC7",
" . c #399BC3",
".. c #229FD9",
"X. c #1FA0DB",
"o. c #35A2C6",
"O. c #3DA5C4",
"+. c #32A4CE",
"@. c #3EACCD",
"#. c #25A1D7",
"$. c #2BA2D5",
"%. c #25A3DB",
"&. c #2BA3DC",
"*. c #26ACDB",
"=. c #2BADDC",
"-. c #32AAD3",
";. c #31A5DD",
":. c #32AEDE",
">. c #2DB1DC",
",. c #3BB8D7",
"<. c #32B2DE",
"1. c #39B6DF",
"2. c #35BBDD",
"3. c #3ABCDD",
"4. c #3FB4D1",
"5. c #449BC0",
"6. c #42A8CD",
"7. c #41B2CB",
"8. c #878786",
"9. c #878D84",
"0. c #8D998C",
"q. c #949486",
"w. c #95958B",
"e. c #9E9E8D",
"r. c #889893",
"t. c #979797",
"y. c #9B9C94",
"u. c #9B9B9A",
"i. c #939F9A",
"p. c #97A59B",
"a. c #A5A596",
"s. c #A1A19C",
"d. c #ABAB9A",
"f. c #A4A4A1",
"g. c #A1A8A1",
"h. c #AAAAA5",
"j. c #A8AEA9",
"k. c #ABB0AF",
"l. c #B4B4AC",
"z. c #B6BDB2",
"x. c #BDBDB4",
"c. c #BEBEBA",
"v. c #C1C7BE",
"b. c #C5CAC2",
"n. c #C5C5C3",
"m. c #D2D2CE",
"M. c #D4D4D3",
"N. c #D7D8D4",
"B. c #DBDBD6",
"V. c #DDDDDA",
"C. c #E1E1DE",
"Z. c #E7E7E5",
"A. c #E7E7E6",
"S. c #E4E4E2",
"D. c #E9E9E7",
"F. c #EBEBE6",
"G. c #EBEBEA",
"H. c #E9E9E8",
"J. c #EDEDED",
"K. c #EFEFEE",
"L. c #EEEEEC",
"P. c #F0F0EE",
"I. c gray94",
"U. c #F1F1F1",
"Y. c #F3F3F3",
"T. c #F2F2F1",
"R. c #F4F4F4",
"E. c #F7F7F7",
"W. c #F6F6F5",
"Q. c #F5F5F4",
"!. c #F8F8F8",
"~. c #FBFBFB",
"^. c #FAFAF9",
"/. c #FCFCFC",
"(. c white",
"). c #FEFEFE",
"_. c #FEFEFE",
/* pixels */
"$.#.#.#.#.#.#.#.%.%.%.%.%...#.#.#...&.&.&.;.$.;.;.;.;.;.;.;.;.;.",
"=.*.*.*.=.*.%.%.%.%.%.%. .r 0 9 1 1 1 1 9 0 e { ;.;.;.;.;.:.:.:.",
"#.%.%.*.X.%.*.*.*.&.*.G v V.C.S.S.S.S.Z.D.G.G.b [ :.:.:.;.;.;.;.",
"#.%.X.>.%.%.%.%.%.#.S 9.N.Z.F.G.G.J.P.P.Y.Y.R.Z.w.] ;.;.;.;.;.;.",
"%.%.%.*.*.%.%.%.%.%.S g A.A.A.G.G.J.J.Y.R.R.E.^.8.] ;.;.;.;.;.;.",
"=.=.*.*.*.%.%.%.#. .( s.A.H.G.G.J.P.Y.R.R.R.^./.l.) 5.:.:.:.:.<.",
"=.*.*.=.=.*.*.=.=.' v G.H.G.J.K.I.Y.R.R.~.~./.).).e.T :.<.:.:.<.",
"=.=.=.*.=.=.*.=. .T w.J.J.K.K.I.Y.R.R.~.~././.).).w.' :.:.<.:.:.",
"2.2.2.2.2.>.=.O.! y.J.P.I.I.R.R.W.^.^.).).).).).).q.I 1.3.3.3.3.",
"=.=.=.=.=.2.7.z b.G.A.B.I.R.!.E.^.^.).).).).).).).y.U @.:.:.<.<.",
"=.=.=.=.=.<.l v.G.P.c.f I.E.!.~.~.).).).).).).).).Z.i.k :.<.:.:.",
"..%.#.#.&.:.r V.Q.c.2 , U.~.~./.).).).).).W.j M.).).s.7 ;.&.&.&.",
"....%.&.&.&.g e.e.Q : 5 E.~.K.t.n.).n.t.).I.+ 5 M.).N.j.^ &.&.%.",
"..&.&.&.&.&.Y Y Y V N q !.J.8.O t.).t., ).I.+ 5 j m.).Z.0 &.%.%.",
":.=.;.&.&.;.;.;.&.;.B w ~.C.O   u.).t.5 ).W.8.j # f.).P.s.] =.=.",
";.&.&.<.<.<.:.:.:.6.T y.K.k.- o u.).t.@ n.R./.5 $ r.C.).W.e X.%.",
"&.&.;.&.;.&.;.;.;.] 9.P.B.3 V & f.).u.X , C.~.6 n M g.L.D.s #.&.",
";.1.;.;.;.;.&.&.&.' c ).B.* Z - f.).u.  < V.~.q N } T v c | %.&.",
";.;.;.&.;.;.&.;.;.' q.).N.4 Z ; h.).f.X , B.^.s N &.}  . .&.&.&.",
";.;.;.;.&.:.:.=.W i.C.V.h S o.> h.).f.$ m a C.B.! { :.=.%.&.&.%.",
"<.:.:.:.:.:.=.<.h a.).M.u -.+.y l.).h.; A 4 B.).q._ &.&.&.&.&.*.",
":.<.<.:.<.=.=.=.d d.).N.d -.+.p l.).l.t S 8 C._.e.] =.=.=.=.=.*.",
"<.<.:.:.>.2.3.2.L p.B.v.~ ,.4.k v.).x.p o.K b.V.0.[ =.>.>.>.=.*.",
"3.3.3.2.3.>.=.=.>.` s ~ =.>.-.E z.F.z.J 2.,.k d D >.>.>.*.*.>.2.",
":.<.>.=.=.=.=.=.=.=.=.=.=.=.>.=.E r U >.>.=.1.3.3.3.2.2.2.2.>.*.",
":.=.=.=.=.=.=.=.=.=.=.=.=.=.=.=.=.=.=.=.=.=.>.>.>.>.>.>.>.*.*.*.",
":.=.=.*.*.*.=.&.&.%.&.&.&.%.&.*.=.=.*.>.=.=.=.=.>.>.*.*.*.*.*.*.",
"&.%.%.%.&.&.%.1.*.&.%.&.&.&.%.%.%.&.&.&.&.&.=.*.*.*.*.*.*.*.*.X.",
"&.X.%.%.*.*.=.<.&.=.=.;.=.=.&.&.#.&.%.&.#.#.*.%.X.*.X.X.X.X.X.X.",
";.=.=.;.&.&.%.%.&.&.&.%.%.&.=.:.=.:.=.=.>.#.%.%.*.X.X.X.X.*.*.*.",
"&.%.&.%.&.%.%.&.&.&.&.&.%.&.&.&.%.&.%.&.X.*.*.*.*.*.*.*.*.*.X.X.",
"#.&.&.&.&.&.&.&.....&...&.&...&...&...%.#.#.X.#.X.#.X.#.X.X.X.X."
};
