/* XPM */
static char *result[] = {
/* columns rows colors chars-per-pixel */
"32 32 96 2 ",
"   c gray13",
".  c #202021",
"X  c #1F1F20",
"o  c #1F2021",
"O  c #222221",
"+  c #343126",
"@  c #4C462C",
"#  c #554E2E",
"$  c #48422B",
"%  c #312E25",
"&  c #383527",
"*  c #8E7E3C",
"=  c #D6BC4F",
"-  c #EFD155",
";  c #EECF55",
":  c #CFB54D",
">  c #817339",
",  c #322F25",
"<  c #423D29",
"1  c #C2AA49",
"2  c #F9D957",
"3  c #C8AF4B",
"4  c #907F3D",
"5  c #95843E",
"6  c #E4C752",
"7  c #59502F",
"8  c #2C2B24",
"9  c #B29C45",
"0  c #FADA58",
"q  c #92813D",
"w  c #312F25",
"e  c #1E1F20",
"r  c #1D1E20",
"t  c #373427",
"y  c #58502F",
"u  c #292823",
"i  c #685E33",
"p  c #F8D857",
"a  c #B8A147",
"s  c #2C2A24",
"d  c #252422",
"f  c #A89443",
"g  c #FBDA58",
"h  c #6D6134",
"j  c #1E1E20",
"k  c #D1B74D",
"l  c #ECCE54",
"z  c #433E29",
"x  c #1F1F21",
"c  c #E5C852",
"v  c #DFC351",
"b  c #363326",
"n  c #3A3727",
"m  c #E9CB53",
"M  c #DABF50",
"N  c #343226",
"B  c #E2C652",
"V  c #E1C451",
"C  c #302D25",
"Z  c #CBB24C",
"A  c #EED055",
"S  c #49432B",
"D  c #232321",
"F  c #9F8C41",
"G  c #FDDC58",
"H  c #776A37",
"J  c #5C5330",
"K  c #F2D356",
"L  c #C7AF4B",
"P  c #353226",
"I  c #272623",
"U  c #9F8D41",
"Y  c #FCDB58",
"T  c #AC9744",
"R  c #232322",
"E  c #282723",
"W  c #4A442B",
"Q  c #93823E",
"!  c #4F482D",
"~  c #AA9543",
"^  c #F7D757",
"/  c #E3C652",
"(  c #B49F46",
")  c #A69242",
"_  c #B8A247",
"`  c #E7C953",
"'  c #F3D456",
"]  c #7A6D37",
"[  c #716535",
"{  c #DEC251",
"}  c #E8CA53",
"|  c #DBBF50",
" . c #B29D46",
".. c #675D33",
"X. c #2A2923",
"o. c white",
/* pixels */
"                                                                ",
"                                                                ",
"                                                                ",
"                                                                ",
"                                                                ",
"                                                                ",
"                              . X X X .                         ",
"                          o O + @ # $ % . .                     ",
"                        o & * = - - ; : > , .                   ",
"                      o < 1 2 3 4 > 5 : 6 7 X                   ",
"                    . 8 9 0 q w e r o t y u                     ",
"                    e i p a s X       . X                       ",
"                    d f g h j                                   ",
"                  . w k l z x                                   ",
"                  o & c v b .                                   ",
"                  o n m M N .                                   ",
"                  o t B V t .                                   ",
"                  . C Z A S X                                   ",
"                    D F G H j                                   ",
"                    e J K L P j .   . x O                       ",
"                    . I U Y T z I R E W Q ! .                   ",
"                      o P ~ ^ / ( ) _ ` ' ] .                   ",
"                        . 8 [ _ { } |  ...X.                    ",
"                          . X u P & + E X .                     ",
"                              . . o . .                         ",
"                                                                ",
"                                                                ",
"                                                                ",
"                                                                ",
"                                                                ",
"                                                                ",
"                                                                "
};
