/* XPM */
static char *result[] = {
/* columns rows colors chars-per-pixel */
"32 32 63 1 ",
"  c gray13",
". c #202121",
"X c #202120",
"o c #1F201F",
"O c #262325",
"+ c #352730",
"@ c #2D252A",
"# c #452C3B",
"$ c #A24980",
"% c #DE5BAB",
"& c #8D4270",
"* c #222122",
"= c #2F252B",
"- c #7C3D63",
"; c #DC5BAA",
": c #FA64C1",
"> c #FF67C7",
", c #3E2A36",
"< c #B85090",
"1 c #F463BC",
"2 c #C15296",
"3 c #954576",
"4 c #F764BE",
"5 c #A1497F",
"6 c #3C2935",
"7 c #B54F8E",
"8 c #843F69",
"9 c #5A334B",
"0 c #F663BD",
"q c #2C2429",
"w c #222121",
"e c #1D201E",
"r c #5C334D",
"t c #1E201F",
"y c #5C334C",
"u c #272325",
"i c #292327",
"p c #623551",
"a c #F663BE",
"s c #A54A82",
"d c #2A2428",
"f c #2B2428",
"g c #934474",
"h c #BA5091",
"j c #B74F8F",
"k c #CC569F",
"l c #FF66C4",
"z c #E45DB0",
"x c #B95090",
"c c #BA5092",
"v c #803F67",
"b c #252224",
"n c #974678",
"m c #C05296",
"M c #BF5294",
"N c #BE5294",
"B c #BC5192",
"V c #BD5193",
"C c #C15396",
"Z c #85406A",
"A c #282326",
"S c #272326",
"D c white",
/* pixels */
"                                ",
"                                ",
"                                ",
"                                ",
"                                ",
"                                ",
"               .XX              ",
"              oO+@              ",
"            XX#$%&*             ",
"           X=-;:>$*             ",
"          X,<12345*             ",
"          X678=905*             ",
"           *qwer05*             ",
"            X tr05*             ",
"              tr05*             ",
"              tr05*             ",
"              tr05*             ",
"              tr05*             ",
"              tr05*             ",
"            .Xty05 X            ",
"            uiOpasdiO           ",
"          Xfghjklzxcvb          ",
"          XfnmMNBVMCZb          ",
"           wAfffffffS           ",
"            .XXXXXXX.           ",
"                                ",
"                                ",
"                                ",
"                                ",
"                                ",
"                                ",
"                                "
};
